<?xml version="1.0" encoding="iso-8859-1"?>
<!-- Generator: Adobe Illustrator 19.0.0, SVG Export Plug-In . SVG Version: 6.00 Build 0)  -->
<svg fill="white" version="1.1" id="Layer_1" xmlns="http://www.w3.org/2000/svg" xmlns:xlink="http://www.w3.org/1999/xlink" x="0px" y="0px"
	 viewBox="0 0 512 512" style="enable-background:new 0 0 512 512;" xml:space="preserve">
<g>
	<g>
		<g>
			<path d="M412.852,420.716c4.466,0,8.084-3.618,8.084-8.084V21.019C420.936,9.429,411.507,0,399.917,0h-38.01H150.093h-38.01
				c-11.59,0-21.019,9.429-21.019,21.019v469.962c0,11.59,9.429,21.019,21.019,21.019h287.833c11.59,0,21.019-9.429,21.019-21.019
				v-53.552c0-4.466-3.618-8.084-8.084-8.084c-4.466,0-8.084,3.619-8.084,8.084v53.552c0,2.674-2.176,4.851-4.851,4.851H112.083
				c-2.674,0-4.851-2.176-4.851-4.851V21.019c0-2.674,2.176-4.851,4.851-4.851h29.926v34.797c0,4.466,3.619,8.084,8.084,8.084
				h153.214c4.466,0,8.084-3.619,8.084-8.084s-3.618-8.084-8.084-8.084h-145.13V16.168h195.646v26.712h-24.647
				c-4.466,0-8.084,3.619-8.084,8.084s3.618,8.084,8.084,8.084h32.731c4.466,0,8.084-3.619,8.084-8.084V16.168h29.926
				c2.674,0,4.851,2.176,4.851,4.851v391.613C404.768,417.098,408.386,420.716,412.852,420.716z"/>
			<path d="M375.381,335.163v-42.881v-42.881V206.52V163.64c0-4.466-3.619-8.084-8.084-8.084H144.703
				c-4.466,0-8.084,3.619-8.084,8.084v42.881v42.881v42.881v42.881v42.881c0,4.466,3.619,8.084,8.084,8.084h222.594
				c4.466,0,8.084-3.619,8.084-8.084V335.163z M359.213,369.96H152.787v-26.712h206.425V369.96z M359.213,327.079H152.787v-26.712
				h206.425V327.079z M359.213,284.198H152.787v-26.712h206.425V284.198z M359.213,241.317H152.787v-26.712h206.425V241.317z
				 M359.213,198.435H152.787v-26.712h206.425V198.435z"/>
			<path d="M289.415,107.05c0-18.426-14.989-33.415-33.415-33.415s-33.415,14.989-33.415,33.415s14.989,33.415,33.415,33.415
				S289.415,125.476,289.415,107.05z M238.754,107.05c0-9.509,7.737-17.246,17.246-17.246c9.509,0,17.246,7.737,17.246,17.246
				c0,9.509-7.737,17.246-17.246,17.246C246.491,124.296,238.754,116.56,238.754,107.05z"/>
			<path d="M375.381,416.945c0-4.466-3.619-8.084-8.084-8.084H144.703c-4.466,0-8.084,3.619-8.084,8.084s3.619,8.084,8.084,8.084
				h222.594C371.762,425.029,375.381,421.41,375.381,416.945z"/>
			<path d="M217.961,458.983v0.023c0,4.466,3.618,8.072,8.084,8.072c4.466,0,8.084-3.63,8.084-8.096s-3.618-8.084-8.084-8.084
				C221.58,450.898,217.961,454.518,217.961,458.983z"/>
			<path d="M188.562,458.983v0.023c0,4.466,3.618,8.072,8.084,8.072c4.466,0,8.084-3.63,8.084-8.096s-3.618-8.084-8.084-8.084
				C192.18,450.897,188.562,454.518,188.562,458.983z"/>
			<path d="M159.161,458.983v0.023c0,4.466,3.618,8.072,8.084,8.072c4.466,0,8.084-3.63,8.084-8.096s-3.618-8.084-8.084-8.084
				C162.779,450.897,159.161,454.518,159.161,458.983z"/>
			<path d="M248.473,459.006c0,4.466,3.618,8.084,8.084,8.084c4.466,0,8.084-3.618,8.084-8.084v-0.023
				c0-4.466-3.618-8.072-8.084-8.072C252.092,450.91,248.473,454.541,248.473,459.006z"/>
			<path d="M336.671,459.006c0,4.466,3.618,8.084,8.084,8.084c4.466,0,8.084-3.618,8.084-8.084v-0.023
				c0-4.466-3.619-8.072-8.084-8.072C340.289,450.91,336.671,454.541,336.671,459.006z"/>
			<path d="M307.27,459.006c0,4.466,3.618,8.084,8.084,8.084c4.466,0,8.084-3.618,8.084-8.084v-0.023
				c0-4.466-3.618-8.072-8.084-8.072C310.89,450.91,307.27,454.541,307.27,459.006z"/>
			<path d="M277.87,459.006c0,4.466,3.618,8.084,8.084,8.084c4.466,0,8.084-3.618,8.084-8.084v-0.023
				c0-4.466-3.619-8.072-8.084-8.072C281.489,450.91,277.87,454.541,277.87,459.006z"/>
			<path d="M339.955,193.175c4.466,0,8.084-3.619,8.084-8.084v-0.023c0-4.466-3.62-8.073-8.084-8.073
				c-4.466,0-8.084,3.63-8.084,8.096S335.489,193.175,339.955,193.175z"/>
			<path d="M339.955,236.068c4.466,0,8.084-3.618,8.084-8.084v-0.023c0-4.466-3.618-8.072-8.084-8.072
				c-4.466,0-8.084,3.63-8.084,8.096C331.871,232.45,335.489,236.068,339.955,236.068z"/>
			<path d="M339.955,278.938c4.466,0,8.084-3.619,8.084-8.084v-0.023c0-4.467-3.62-8.073-8.084-8.073
				c-4.466,0-8.084,3.63-8.084,8.096S335.489,278.938,339.955,278.938z"/>
			<path d="M339.955,321.819c4.466,0,8.084-3.618,8.084-8.084v-0.023c0-4.467-3.62-8.073-8.084-8.073
				c-4.466,0-8.084,3.63-8.084,8.096C331.871,318.201,335.489,321.819,339.955,321.819z"/>
			<path d="M339.955,364.699c4.466,0,8.084-3.618,8.084-8.084v-0.023c0-4.466-3.618-8.072-8.084-8.072
				c-4.466,0-8.084,3.63-8.084,8.096C331.871,361.082,335.489,364.699,339.955,364.699z"/>
			<circle cx="256" cy="107.046" r="7.646"/>
			<path d="M325.942,115.134c4.466,0,8.084-3.619,8.084-8.084s-3.619-8.084-8.084-8.084h-15.977c-4.466,0-8.084,3.619-8.084,8.084
				s3.619,8.084,8.084,8.084H325.942z"/>
		</g>
	</g>
</g>
<g>
</g>
<g>
</g>
<g>
</g>
<g>
</g>
<g>
</g>
<g>
</g>
<g>
</g>
<g>
</g>
<g>
</g>
<g>
</g>
<g>
</g>
<g>
</g>
<g>
</g>
<g>
</g>
<g>
</g>
</svg>
