<?xml version="1.0" encoding="utf-8"?>
<!-- Generator: Adobe Illustrator 23.0.3, SVG Export Plug-In . SVG Version: 6.00 Build 0)  -->
<svg fill="#ffffff" version="1.1" id="Layer_1" xmlns="http://www.w3.org/2000/svg" xmlns:xlink="http://www.w3.org/1999/xlink" x="0px" y="0px"
	 viewBox="0 0 50 50" style="enable-background:new 0 0 50 50;" xml:space="preserve">

<g>
	<g>
		<path class="st43" d="M25.1,46.1c-8.7,0-15.7-7-15.7-15.7v-4.6c0-3.3,2.7-5.9,5.9-5.9h19.5c3.3,0,5.9,2.7,5.9,5.9v4.6
			C40.8,39,33.7,46.1,25.1,46.1z M15.3,21.8c-2.2,0-3.9,1.8-3.9,3.9v4.6c0,7.6,6.1,13.7,13.7,13.7s13.7-6.1,13.7-13.7v-4.6
			c0-2.2-1.8-3.9-3.9-3.9H15.3z"/>
		<path class="st43" d="M34.3,21.8c-0.6,0-1-0.4-1-1V18c0-4.5-3.7-8.2-8.2-8.2s-8.2,3.7-8.2,8.2v2.8c0,0.6-0.4,1-1,1
			c-0.6,0-1-0.4-1-1V18c0-5.6,4.6-10.2,10.2-10.2S35.3,12.4,35.3,18v2.8C35.3,21.3,34.8,21.8,34.3,21.8z"/>
		<path class="st43" d="M25.1,36.4c-0.6,0-1-0.4-1-1v-5.5c0-0.6,0.4-1,1-1s1,0.4,1,1v5.5C26.1,36,25.6,36.4,25.1,36.4z"/>
	</g>
</g>
</svg>
